<svg xmlns="http://www.w3.org/2000/svg" viewBox="0 0 169 169"><defs><style>.cls-1{fill:#15fff6;}.cls-2{fill:none;stroke:#15fff6;stroke-miterlimit:10;stroke-width:8px;}</style></defs><title>we-code</title><g id="Livello_2" data-name="Livello 2"><g id="Layer_4" data-name="Layer 4"><path class="cls-1" d="M103.83,131.08a18.6,18.6,0,0,0-18.39-16H82a18.6,18.6,0,0,0-18.44,16,196.81,196.81,0,0,0-2.06,28,2.68,2.68,0,0,0,2.08,2.6c4,.91,12.87,2.74,20.08,2.75s16.12-1.8,20.09-2.7a2.68,2.68,0,0,0,2.09-2.59A196.87,196.87,0,0,0,103.83,131.08Z"/><path class="cls-1" d="M133.15,75.33a6.39,6.39,0,0,0-1.48-.12C130.3,51.68,109.73,33,84.56,33S38.83,51.68,37.46,75.21A6.41,6.41,0,0,0,31,82.9l.91,4.5a6.43,6.43,0,0,0,7.58,5L40,92.3c6.38,17.52,23.94,30.11,44.61,30.11s38.22-12.59,44.61-30.11l.51.13a6.43,6.43,0,0,0,7.58-5l.91-4.5A6.43,6.43,0,0,0,133.15,75.33Z"/><rect class="cls-1" x="119" y="62.51" width="28.33" height="2.3" transform="translate(53.12 187.66) rotate(-82.71)"/><circle class="cls-1" cx="134.96" cy="49.61" r="3.6"/><rect class="cls-1" x="34.81" y="49.49" width="2.3" height="28.33" transform="translate(-7.79 5.08) rotate(-7.29)"/><circle class="cls-1" cx="34.16" cy="49.61" r="3.6"/><circle class="cls-2" cx="84.5" cy="84.5" r="80.5"/></g></g></svg>